<svg xmlns="http://www.w3.org/2000/svg" xmlns:xlink="http://www.w3.org/1999/xlink" width="1080" zoomAndPan="magnify" viewBox="0 0 810 809.999993" height="1080" preserveAspectRatio="xMidYMid meet" version="1.2"><defs><clipPath id="e4a8e3676e"><path d="M 18.828125 73 L 791.328125 73 L 791.328125 735 L 18.828125 735 Z M 18.828125 73 "/></clipPath></defs><g id="eef69c20a5"><g clip-rule="nonzero" clip-path="url(#e4a8e3676e)"><path style=" stroke:none;fill-rule:nonzero;fill:#bcbdbd;fill-opacity:1;" d="M 639.589844 584.84375 L 505.214844 726.460938 C 495.710938 736.414062 480.78125 736.867188 470.828125 727.367188 C 467.660156 724.652344 465.398438 721.03125 464.492188 716.960938 C 462.230469 708.816406 464.039062 699.765625 469.921875 693.433594 C 464.039062 699.765625 462.230469 708.816406 464.492188 716.960938 C 462.230469 708.816406 464.039062 699.765625 469.921875 693.433594 C 464.039062 699.765625 462.230469 708.816406 464.492188 716.960938 C 462.230469 708.816406 464.039062 699.765625 469.921875 693.433594 Z M 464.492188 716.960938 L 414.722656 584.84375 L 109.769531 584.84375 C 84.886719 584.84375 62.261719 574.890625 45.523438 558.148438 C 29.234375 541.863281 18.828125 519.238281 18.828125 493.902344 L 18.828125 164.0625 C 18.828125 139.179688 29.234375 116.554688 45.523438 99.816406 C 62.261719 83.527344 84.886719 73.121094 109.769531 73.121094 L 700.21875 73.121094 C 725.558594 73.121094 748.179688 83.527344 764.46875 99.816406 C 780.757812 116.554688 791.164062 139.179688 791.164062 164.0625 L 791.164062 493.902344 C 791.164062 519.238281 780.757812 541.863281 764.46875 558.148438 C 748.179688 574.890625 725.558594 584.84375 700.21875 584.84375 L 639.589844 584.84375 Z M 156.371094 416.078125 C 142.800781 416.078125 131.941406 426.9375 131.941406 440.058594 C 131.941406 453.632812 142.800781 464.492188 156.371094 464.492188 L 650.902344 464.492188 C 664.023438 464.492188 674.882812 453.632812 674.882812 440.058594 C 674.882812 426.9375 664.023438 416.078125 650.902344 416.078125 Z M 156.371094 312.015625 C 142.800781 312.015625 131.941406 322.875 131.941406 336.449219 C 131.941406 349.570312 142.800781 360.429688 156.371094 360.429688 L 654.070312 360.429688 C 667.191406 360.429688 678.050781 349.570312 678.050781 336.449219 C 678.050781 322.875 667.191406 312.015625 654.070312 312.015625 Z M 156.371094 207.953125 C 142.800781 207.953125 131.941406 218.8125 131.941406 232.382812 C 131.941406 245.503906 142.800781 256.363281 156.371094 256.363281 L 504.761719 256.363281 C 517.882812 256.363281 528.742188 245.503906 528.742188 232.382812 C 528.742188 218.8125 517.882812 207.953125 504.761719 207.953125 Z M 156.371094 207.953125 "/></g></g></svg>