<svg xmlns="http://www.w3.org/2000/svg" xmlns:xlink="http://www.w3.org/1999/xlink" width="1080" zoomAndPan="magnify" viewBox="0 0 810 809.999993" height="1080" preserveAspectRatio="xMidYMid meet" version="1.2"><defs><clipPath id="b5bc7d409c"><path d="M 16.558594 231 L 490 231 L 490 706 L 16.558594 706 Z M 16.558594 231 "/></clipPath></defs><g id="f231dd8486"><path style=" stroke:none;fill-rule:nonzero;fill:#bcbdbd;fill-opacity:1;" d="M 404.210938 103.78125 C 394.640625 103.78125 386.902344 111.519531 386.902344 121.089844 L 386.902344 176.738281 C 386.902344 186.304688 394.640625 194.046875 404.210938 194.046875 C 413.777344 194.046875 421.519531 186.304688 421.519531 176.738281 L 421.519531 121.089844 C 421.519531 111.519531 413.777344 103.78125 404.210938 103.78125 Z M 404.210938 103.78125 "/><path style=" stroke:none;fill-rule:nonzero;fill:#bcbdbd;fill-opacity:1;" d="M 482.816406 211.632812 C 485.183594 212.726562 487.671875 213.265625 490.117188 213.265625 C 496.640625 213.265625 502.890625 209.5625 505.835938 203.257812 L 529.351562 152.824219 C 533.390625 144.148438 529.648438 133.84375 520.972656 129.804688 C 512.339844 125.824219 502.015625 129.527344 497.957031 138.179688 L 474.4375 188.613281 C 470.402344 197.289062 474.140625 207.59375 482.816406 211.632812 Z M 482.816406 211.632812 "/><path style=" stroke:none;fill-rule:nonzero;fill:#bcbdbd;fill-opacity:1;" d="M 302.523438 202.976562 C 305.46875 209.285156 311.71875 212.984375 318.242188 212.984375 C 320.691406 212.984375 323.175781 212.449219 325.542969 211.355469 C 334.21875 207.316406 337.957031 197.011719 333.917969 188.335938 L 310.402344 137.902344 C 306.34375 129.226562 296.039062 125.488281 287.386719 129.527344 C 278.710938 133.5625 274.96875 143.871094 279.007812 152.542969 Z M 302.523438 202.976562 "/><path style=" stroke:none;fill-rule:nonzero;fill:#bcbdbd;fill-opacity:1;" d="M 784.128906 447.152344 C 774.914062 435.714844 759.015625 430.949219 745.339844 435.394531 C 734.527344 438.890625 722.449219 441.757812 708.464844 444.300781 C 703.695312 444.945312 699.25 443.675781 695.753906 440.808594 C 692.242188 437.957031 690.34375 433.492188 690.34375 429.046875 L 690.34375 333.023438 L 595.589844 333.023438 C 590.820312 333.023438 586.699219 331.105469 583.832031 327.609375 C 580.964844 324.113281 579.707031 319.652344 580.335938 315.207031 C 582.574219 301.851562 585.425781 289.769531 589.242188 278.636719 C 591.46875 272.273438 591.773438 264.960938 589.871094 257.96875 C 586.699219 245.890625 576.515625 236.046875 564.433594 233.179688 C 553.320312 230.632812 542.511719 232.855469 533.601562 239.847656 C 525.339844 246.515625 520.25 256.699219 520.25 267.507812 C 520.25 271.324219 520.890625 274.820312 521.84375 278.316406 C 525.339844 289.125 528.527344 301.207031 530.753906 314.882812 C 531.71875 319.328125 530.445312 324.097656 527.578125 327.59375 C 524.726562 331.105469 520.265625 333.007812 515.820312 333.007812 L 420.761719 333.007812 L 420.761719 409.636719 C 425.53125 408.363281 429.988281 407.089844 434.4375 405.496094 C 446.515625 401.679688 459.875 401.371094 472.582031 404.546875 C 495.792969 410.585938 514.226562 429.660156 519.636719 452.871094 C 524.097656 472.910156 519.636719 493.886719 506.925781 509.785156 C 494.523438 525.683594 475.449219 534.898438 455.105469 534.898438 C 448.113281 534.898438 441.105469 533.949219 434.4375 531.726562 C 429.988281 530.453125 425.542969 529.179688 420.453125 527.90625 L 420.453125 604.554688 L 515.835938 604.554688 C 520.28125 604.554688 524.726562 606.472656 527.59375 609.96875 C 530.445312 613.460938 531.71875 618.230469 530.769531 622.675781 C 528.222656 636.675781 525.355469 648.433594 521.859375 659.242188 C 520.585938 662.417969 519.960938 666.234375 519.960938 670.054688 C 519.960938 680.863281 524.726562 691.042969 533.3125 697.710938 C 542.203125 704.703125 553.011719 706.925781 564.144531 704.382812 C 576.226562 701.53125 586.410156 691.671875 589.582031 679.589844 C 591.175781 672.597656 591.175781 665.589844 588.953125 658.921875 C 585.132812 647.46875 582.269531 635.707031 580.046875 622.355469 C 579.402344 617.890625 580.671875 613.445312 583.542969 609.949219 C 586.390625 606.761719 590.855469 604.539062 595.300781 604.539062 L 690.679688 604.539062 L 690.679688 509.15625 C 690.679688 504.386719 692.597656 500.265625 696.09375 497.398438 C 699.589844 494.53125 704.050781 493.273438 708.496094 493.902344 C 721.835938 496.140625 733.917969 498.992188 745.371094 502.808594 C 752.054688 505.03125 759.046875 505.339844 766.039062 503.4375 C 778.121094 500.265625 787.960938 490.082031 790.828125 478.003906 C 793.375 466.871094 790.828125 455.738281 784.128906 447.152344 Z M 784.128906 447.152344 "/><g clip-rule="nonzero" clip-path="url(#b5bc7d409c)"><path style=" stroke:none;fill-rule:nonzero;fill:#bcbdbd;fill-opacity:1;" d="M 482.082031 490.730469 C 472.921875 502.207031 457.015625 506.929688 443.324219 502.496094 C 432.523438 499.023438 420.761719 496.132812 407.070312 493.527344 C 404.273438 492.949219 401.382812 493.238281 398.78125 494.203125 C 397.140625 494.78125 395.695312 495.648438 394.34375 496.710938 C 391.066406 499.507812 389.136719 503.652344 388.945312 507.894531 L 388.945312 604.503906 L 293.203125 604.503906 C 288.765625 604.503906 284.234375 606.722656 281.4375 609.902344 C 278.546875 613.46875 277.292969 617.90625 277.871094 622.339844 C 280.1875 635.742188 282.980469 647.507812 286.839844 658.882812 C 289.054688 665.632812 289.054688 672.574219 287.417969 679.613281 C 284.234375 691.664062 274.109375 701.5 262.058594 704.390625 C 250.875 706.898438 240.078125 704.679688 231.207031 697.738281 C 222.625 691.085938 217.804688 680.867188 217.804688 670.066406 C 217.804688 666.210938 218.480469 662.449219 219.734375 659.269531 C 223.207031 648.46875 226.097656 636.707031 228.601562 622.628906 C 229.566406 618.195312 228.3125 613.46875 225.421875 610 C 222.625 606.433594 218.191406 604.601562 213.753906 604.601562 L 117.722656 604.601562 L 117.722656 508.472656 C 117.722656 504.039062 115.890625 499.601562 112.324219 496.710938 C 108.855469 493.914062 104.417969 492.5625 99.597656 493.527344 C 85.90625 495.746094 73.855469 499.023438 63.054688 502.496094 C 49.363281 506.929688 33.457031 502.109375 24.296875 490.730469 C 18.800781 483.984375 16.292969 475.789062 16.582031 467.207031 C 16.679688 464.796875 17.066406 462.289062 17.644531 459.878906 C 20.4375 447.828125 30.273438 437.605469 42.425781 434.425781 C 49.363281 432.496094 56.402344 432.882812 63.054688 435.101562 C 74.238281 438.859375 86.292969 441.753906 99.308594 443.96875 C 103.742188 444.644531 108.566406 443.390625 112.035156 440.5 C 115.3125 437.800781 117.148438 433.75 117.433594 429.605469 L 117.433594 332.996094 L 213.464844 332.996094 C 217.226562 332.996094 220.984375 331.644531 223.78125 329.136719 L 224.652344 328.269531 C 224.84375 328.078125 225.035156 327.789062 225.230469 327.59375 C 228.121094 324.125 229.375 319.304688 228.410156 314.867188 C 226.191406 301.175781 223.011719 289.125 219.445312 278.039062 C 218.191406 274.566406 217.898438 271 217.898438 266.851562 C 217.898438 258.078125 220.984375 249.789062 226.769531 243.328125 C 227.542969 242.460938 228.410156 241.6875 229.277344 240.917969 C 229.953125 240.339844 230.53125 239.757812 231.207031 239.277344 C 239.785156 232.238281 250.972656 230.023438 262.058594 232.527344 C 274.109375 235.421875 284.332031 245.253906 287.515625 257.402344 C 289.441406 264.347656 289.054688 271.382812 286.839844 278.039062 C 283.078125 289.511719 280.1875 301.5625 277.96875 314.867188 C 277.292969 319.304688 278.644531 323.835938 281.4375 327.304688 C 284.332031 330.777344 288.765625 332.707031 293.203125 332.707031 L 388.558594 332.707031 L 388.558594 428.445312 C 388.558594 432.882812 390.488281 437.316406 394.054688 440.210938 C 397.523438 443.007812 401.960938 444.355469 406.683594 443.390625 C 419.796875 441.175781 431.851562 438.28125 442.9375 434.425781 C 449.683594 432.207031 456.628906 432.207031 463.667969 433.847656 C 475.71875 437.027344 485.554688 447.152344 488.445312 459.203125 C 491.339844 470.96875 489.121094 482.152344 482.082031 490.730469 Z M 482.082031 490.730469 "/></g></g></svg>