<svg xmlns="http://www.w3.org/2000/svg" xmlns:xlink="http://www.w3.org/1999/xlink" width="1080" zoomAndPan="magnify" viewBox="0 0 810 809.999993" height="1080" preserveAspectRatio="xMidYMid meet" version="1.2"><defs><clipPath id="a6a633c0e9"><path d="M 39.355469 39.355469 L 770.605469 39.355469 L 770.605469 770.605469 L 39.355469 770.605469 Z M 39.355469 39.355469 "/></clipPath></defs><g id="320b460245"><g clip-rule="nonzero" clip-path="url(#a6a633c0e9)"><path style=" stroke:none;fill-rule:nonzero;fill:#bcbdbd;fill-opacity:1;" d="M 577.058594 39.355469 L 232.902344 39.355469 C 126.183594 39.355469 39.355469 126.183594 39.355469 232.902344 L 39.355469 577.058594 C 39.355469 683.78125 126.183594 770.605469 232.902344 770.605469 L 577.058594 770.605469 C 683.78125 770.605469 770.605469 683.78125 770.605469 577.058594 L 770.605469 232.902344 C 770.605469 126.183594 683.78125 39.355469 577.058594 39.355469 Z M 596.933594 420.214844 L 420.214844 420.214844 L 420.214844 596.933594 C 420.214844 605.347656 413.394531 612.167969 404.980469 612.167969 C 396.566406 612.167969 389.746094 605.347656 389.746094 596.933594 L 389.746094 420.214844 L 213.027344 420.214844 C 204.613281 420.214844 197.792969 413.398438 197.792969 404.980469 C 197.792969 396.566406 204.613281 389.746094 213.027344 389.746094 L 389.746094 389.746094 L 389.746094 213.027344 C 389.746094 204.613281 396.566406 197.792969 404.980469 197.792969 C 413.394531 197.792969 420.214844 204.613281 420.214844 213.027344 L 420.214844 389.746094 L 596.933594 389.746094 C 605.347656 389.746094 612.167969 396.566406 612.167969 404.980469 C 612.167969 413.398438 605.347656 420.214844 596.933594 420.214844 Z M 596.933594 420.214844 "/></g></g></svg>